<svg width="251" height="126" viewBox="0 0 251 126" fill="none" xmlns="http://www.w3.org/2000/svg">
<path fill-rule="evenodd" clip-rule="evenodd" d="M131.863 44.8522C131.863 45.7926 131.585 46.7118 131.065 47.4936C130.545 48.2755 129.805 48.8849 128.94 49.2447C128.074 49.6046 127.122 49.6987 126.204 49.5153C125.285 49.3318 124.441 48.879 123.779 48.2141C123.117 47.5492 122.666 46.702 122.483 45.7798C122.3 44.8575 122.394 43.9016 122.752 43.0328C123.111 42.1641 123.718 41.4215 124.497 40.8991C125.275 40.3767 126.191 40.0978 127.127 40.0978C127.75 40.0959 128.367 40.2175 128.942 40.4558C129.517 40.694 130.04 41.0442 130.48 41.486C130.92 41.9279 131.269 42.4528 131.506 43.0305C131.744 43.6082 131.865 44.2273 131.863 44.8522ZM112.327 54.4072V55.5832C111.433 54.6124 110.34 53.8477 109.124 53.342C107.907 52.8362 106.596 52.6014 105.28 52.6537C103.395 52.6333 101.525 52.9967 99.7832 53.722C98.0416 54.4473 96.4645 55.5195 95.1471 56.8737C93.8297 58.2279 92.7994 59.8362 92.1183 61.6013C91.4372 63.3665 91.1194 65.2519 91.1843 67.1437C91.1175 69.0356 91.4333 70.9213 92.1126 72.6872C92.7919 74.4531 93.8206 76.0624 95.1366 77.418C96.4527 78.7737 98.0287 79.8474 99.7695 80.5745C101.51 81.3016 103.38 81.6669 105.265 81.6484C106.589 81.7095 107.909 81.4716 109.129 80.9523C110.348 80.4329 111.436 79.6453 112.312 78.6475V79.8928C112.31 80.0271 112.335 80.1605 112.385 80.2849C112.436 80.4094 112.51 80.5225 112.605 80.6174C112.7 80.7124 112.812 80.7874 112.936 80.8378C113.06 80.8883 113.193 80.9133 113.327 80.9113H119.234V53.3404H113.377C113.11 53.3479 112.856 53.4575 112.668 53.647C112.479 53.8364 112.37 54.0912 112.362 54.3589L112.327 54.4072ZM112.327 72.0388C111.651 72.9742 110.762 73.7343 109.735 74.2562C108.708 74.7781 107.571 75.0467 106.42 75.0397C101.756 75.0397 98.1893 72.1102 98.1893 67.1437C98.1893 62.1772 101.756 59.2477 106.42 59.2477C107.568 59.2564 108.699 59.5319 109.724 60.0525C110.749 60.5731 111.64 61.3248 112.327 62.2486V72.0556V72.0388ZM123.622 53.3866H130.671V80.8966H123.622V53.3404V53.3866ZM228.136 52.6516C226.82 52.5993 225.509 52.8341 224.292 53.3399C223.076 53.8456 221.983 54.6103 221.089 55.5811V40.1419H214.04V80.8924H219.945C220.212 80.885 220.466 80.7753 220.654 80.5859C220.843 80.3965 220.952 80.1417 220.96 79.8739V78.6286C221.842 79.615 222.929 80.395 224.144 80.9135C225.359 81.432 226.672 81.6764 227.992 81.6295C229.876 81.644 231.743 81.2766 233.482 80.5492C235.22 79.8218 236.795 78.7495 238.111 77.3965C239.428 76.0435 240.458 74.4376 241.141 72.6752C241.825 70.9127 242.146 69.0299 242.088 67.1395C242.148 65.2488 241.828 63.3652 241.145 61.6019C240.462 59.8386 239.432 58.232 238.115 56.8787C236.799 55.5253 235.223 54.453 233.484 53.7263C231.744 52.9995 229.876 52.6333 227.992 52.6495L228.136 52.6516ZM226.946 74.9704C225.793 74.9868 224.654 74.7223 223.625 74.1997C222.596 73.6771 221.709 72.9118 221.039 71.9695V62.1604C221.749 61.2613 222.645 60.5275 223.665 60.0094C224.684 59.4914 225.804 59.2014 226.946 59.1595C231.61 59.1595 235.177 62.089 235.177 67.0555C235.177 72.022 231.61 74.9515 226.946 74.9515V74.9704ZM210.468 64.5838V80.9701H203.419V65.4028C203.419 60.8605 202.009 59.0356 198.022 59.0356C196.948 59.0732 195.893 59.3326 194.924 59.7976C193.954 60.2626 193.09 60.9232 192.385 61.7383V80.8987H185.336V53.3404H190.875C191.142 53.3479 191.396 53.4575 191.584 53.647C191.773 53.8364 191.882 54.0912 191.89 54.3589V55.5349C192.862 54.5626 194.023 53.801 195.301 53.2971C196.578 52.7932 197.945 52.5578 199.317 52.6054C202.105 52.502 204.831 53.4394 206.971 55.2367C209.451 57.2884 210.395 59.9197 210.395 64.5334L210.468 64.5838ZM168.425 52.6558C167.11 52.6035 165.798 52.8383 164.582 53.3441C163.365 53.8498 162.272 54.6145 161.379 55.5853V40.1461H154.33V80.8924H160.236C160.503 80.885 160.757 80.7753 160.946 80.5859C161.134 80.3965 161.244 80.1417 161.251 79.8739V78.6286C162.135 79.6169 163.224 80.3981 164.442 80.9167C165.659 81.4353 166.976 81.6786 168.298 81.6295C170.181 81.644 172.049 81.2766 173.788 80.5492C175.526 79.8218 177.101 78.7495 178.417 77.3965C179.734 76.0435 180.764 74.4376 181.447 72.6752C182.131 70.9127 182.452 69.0299 182.393 67.1395C182.466 65.2456 182.154 63.3567 181.476 61.5879C180.798 59.8191 179.768 58.2076 178.449 56.8517C177.13 55.4957 175.549 54.4239 173.804 53.7014C172.059 52.9789 170.185 52.621 168.298 52.6495L168.425 52.6558ZM167.25 74.9704C166.097 74.9868 164.957 74.7223 163.929 74.1997C162.9 73.6771 162.013 72.9118 161.343 71.9695V62.1604C162.053 61.2613 162.949 60.5275 163.969 60.0094C164.988 59.4914 166.108 59.2014 167.25 59.1595C171.914 59.1595 175.481 62.089 175.481 67.0555C175.481 72.022 171.914 74.9515 167.25 74.9515V74.9704ZM148.257 52.6474C149.341 52.6129 150.423 52.7367 151.47 53.0149V59.5249C151.47 59.5249 145.614 57.5866 141.999 61.7173V80.9638H134.95V53.3404H140.857C141.124 53.3479 141.378 53.4575 141.566 53.647C141.755 53.8364 141.864 54.0912 141.872 54.3589V55.5349C143.543 53.7917 145.808 52.7455 148.214 52.6054L148.257 52.6474ZM75.593 78.4039L74.4928 75.7726L72.8153 72.0346L72.7441 71.9632C67.6465 60.8101 62.2791 49.7832 56.6467 38.8924L56.4208 38.4724L54.6847 34.9654C53.9668 33.5296 53.0874 32.181 52.0638 30.946C50.9501 29.5369 49.5306 28.4017 47.9135 27.6269C46.2965 26.8521 44.5246 26.4581 42.7329 26.4751C40.9534 26.481 39.1966 26.8766 37.585 27.6343C35.9735 28.392 34.5459 29.4935 33.402 30.862C32.403 32.1151 31.5254 33.461 30.7811 34.8814L28.8087 38.758C23.1716 49.741 17.7291 60.85 12.6987 71.8288L12.6276 71.9695C12.2092 73.1728 11.6131 74.4055 11.0212 75.7201C10.6544 76.5223 10.2877 77.3994 9.92094 78.3514C8.99104 80.8721 8.69084 83.5833 9.04662 86.2474C9.43883 88.9229 10.5185 91.4497 12.1792 93.5788C13.84 95.7079 16.0245 97.366 18.5177 98.3896C20.3871 99.1786 22.3967 99.578 24.4246 99.5635C25.0563 99.5529 25.6869 99.5059 26.3133 99.4228C28.8847 99.0936 31.3633 98.2465 33.6007 96.9322C36.999 94.8974 40.0493 92.3271 42.6346 89.3197C45.2361 92.3105 48.2836 94.8785 51.6685 96.9322C53.9057 98.2469 56.3844 99.094 58.9559 99.4228C59.5823 99.5058 60.2129 99.5528 60.8447 99.5635C62.8731 99.5848 64.8841 99.1851 66.7515 98.3896C69.2447 97.366 71.4292 95.7079 73.09 93.5788C74.7507 91.4497 75.8304 88.9229 76.2226 86.2474C76.7595 83.6297 76.5291 80.9119 75.5595 78.4228L75.593 78.4039ZM42.7371 82.2112C38.8048 77.23 36.2529 72.5596 35.3786 68.5969C35.0215 67.1388 34.9448 65.6256 35.1527 64.1386C35.297 63.0373 35.6975 61.9855 36.322 61.0684C37.0523 60.0511 38.017 59.2264 39.1338 58.6647C40.2506 58.103 41.4861 57.821 42.735 57.8428C43.9867 57.7945 45.2304 58.0635 46.3512 58.6251C47.4721 59.1866 48.4339 60.0226 49.148 61.0558C49.7725 61.9729 50.173 63.0247 50.3173 64.126C50.5262 65.613 50.4495 67.1264 50.0914 68.5843C49.2171 72.4609 46.6673 77.0746 42.7329 82.1986L42.7371 82.2112ZM71.8154 85.6489C71.5414 87.5221 70.7846 89.2909 69.6201 90.7801C68.4556 92.2693 66.9239 93.4273 65.1765 94.1392C63.4338 94.8792 61.5308 95.1569 59.6503 94.9456C57.6938 94.7027 55.8083 94.0571 54.1116 93.0493C50.9841 91.1536 48.1809 88.7647 45.8097 85.9744C50.6164 80.044 53.5343 74.6344 54.6324 69.8002C55.1065 67.7608 55.2303 65.655 54.9984 63.5737C54.7278 61.7841 54.0531 60.0803 53.026 58.5925C51.8711 56.9377 50.3286 55.5934 48.5344 54.6779C46.7402 53.7624 44.7493 53.3038 42.7371 53.3425C40.7351 53.3169 38.7564 53.7754 36.9682 54.6793C35.1799 55.5832 33.6346 56.906 32.4628 58.5358C31.4357 60.0236 30.7611 61.7274 30.4904 63.517C30.1823 65.5956 30.3069 67.7158 30.8564 69.7435C31.9566 74.5693 34.9435 80.0587 39.6791 85.9891C37.3245 88.7961 34.5185 91.1875 31.3773 93.064C29.6806 94.0936 27.7896 94.7586 25.8239 95.017C23.9456 95.2264 22.0447 94.9742 20.2851 94.282C18.5378 93.5701 17.006 92.4121 15.8415 90.9229C14.677 89.4337 13.9203 87.6649 13.6462 85.7917C13.4158 83.8791 13.6431 81.939 14.3093 80.1322C14.5352 79.3972 14.8866 78.7168 15.2505 77.797C15.7588 76.621 16.3507 75.3778 16.928 74.1325L16.9991 73.9918C22.0317 63.0718 27.4156 51.9733 33.0422 41.1331L33.2514 40.6081L35 37.2397C35.5674 36.0786 36.2725 34.9906 37.1001 33.9994C37.8185 33.1518 38.7119 32.4711 39.7182 32.0042C40.7245 31.5373 41.8199 31.2955 42.9285 31.2955C44.0371 31.2955 45.1324 31.5373 46.1388 32.0042C47.1451 32.4711 48.0384 33.1518 48.7569 33.9994C49.5429 34.9882 50.2099 36.0667 50.744 37.2124L52.4926 40.5808L52.7018 41.0008C58.2405 51.9124 63.6538 63.0193 68.6717 73.9288V74.0002C69.249 75.1762 69.7719 76.4908 70.3492 77.6647C70.7152 78.5425 71.0813 79.2775 71.2904 79.9999C71.8956 81.8212 72.0696 83.7589 71.7987 85.6594L71.8154 85.6489Z" fill="#D0CCC8"/>
</svg>
