<svg width="258" height="126" viewBox="0 0 258 126" fill="none" xmlns="http://www.w3.org/2000/svg">
<path fill-rule="evenodd" clip-rule="evenodd" d="M158.113 96.2019C144.301 106.383 124.28 111.815 107.043 111.815C82.873 111.815 61.1142 102.875 44.6526 88.0074C43.3595 86.838 44.5183 85.2447 46.0702 86.1553C63.8353 96.4916 85.8012 102.71 108.491 102.71C123.794 102.71 140.628 99.5438 156.106 92.9738C158.444 91.9805 160.4 94.505 158.113 96.2019Z" fill="#D0CCC8"/>
<path fill-rule="evenodd" clip-rule="evenodd" d="M163.856 89.6317C162.097 87.376 152.185 88.5659 147.735 89.0936C146.38 89.2593 146.173 88.0796 147.394 87.2313C155.289 81.6752 168.243 83.2789 169.753 85.1413C171.264 87.014 169.36 99.9989 161.941 106.197C160.803 107.148 159.717 106.641 160.224 105.379C161.89 101.22 165.625 91.8977 163.856 89.6317Z" fill="#D0CCC8"/>
<path fill-rule="evenodd" clip-rule="evenodd" d="M148.046 48.0075V42.6067C148.046 41.7893 148.667 41.2409 149.412 41.2409H173.592C174.368 41.2409 174.989 41.7995 174.989 42.6067V47.2315C174.978 48.0075 174.327 49.0215 173.168 50.6252L160.638 68.5144C165.294 68.4008 170.209 69.0939 174.43 71.4737C175.382 72.0116 175.641 72.7981 175.713 73.5739V79.337C175.713 80.1233 174.844 81.0441 173.933 80.5683C166.494 76.6678 156.613 76.2435 148.388 80.6096C147.55 81.0651 146.67 80.1545 146.67 79.3682V73.8948C146.67 73.0154 146.68 71.5151 147.56 70.1804L162.076 49.3631H149.443C148.667 49.3631 148.046 48.8147 148.046 48.0075ZM59.8416 81.7063H52.485C51.7815 81.6548 51.2229 81.1271 51.1711 80.4544V42.6999C51.1711 41.9445 51.8022 41.3443 52.5884 41.3443H59.4482C60.1623 41.3752 60.7313 41.9238 60.7831 42.6064V47.5421H60.9177C62.7075 42.7724 66.0701 40.548 70.6019 40.548C75.206 40.548 78.0826 42.7724 80.1519 47.5421C81.9315 42.7724 85.9771 40.548 90.3123 40.548C93.3955 40.548 96.7685 41.8206 98.8274 44.6763C101.155 47.8525 100.68 52.4671 100.68 56.5126L100.669 80.3408C100.669 81.0962 100.038 81.7066 99.2517 81.7066H91.9056C91.1711 81.655 90.5812 81.0653 90.5812 80.3408V60.3304C90.5812 58.737 90.7262 54.7637 90.3744 53.2534C89.826 50.7184 88.181 50.0044 86.0493 50.0044C84.2697 50.0044 82.4074 51.1943 81.652 53.0982C80.8969 55.0021 80.9694 58.1886 80.9694 60.3304V80.3406C80.9694 81.096 80.3381 81.7063 79.5518 81.7063H72.2057C71.4607 81.6548 70.8812 81.0651 70.8812 80.3406L70.871 60.3304C70.871 56.1193 71.5641 49.9219 66.3392 49.9219C61.0522 49.9219 61.259 55.964 61.259 60.3304V80.3406C61.259 81.096 60.6279 81.7063 59.8416 81.7063ZM195.806 40.5478C206.722 40.5478 212.63 49.9217 212.63 61.841C212.63 73.3567 206.101 82.4929 195.806 82.4929C185.087 82.4929 179.252 73.1188 179.252 61.4374C179.252 49.6837 185.159 40.5478 195.806 40.5478ZM195.868 48.2559C190.446 48.2559 190.105 55.6434 190.105 60.2475C190.105 64.8623 190.033 74.712 195.806 74.712C201.507 74.712 201.776 66.766 201.776 61.9237C201.776 58.737 201.641 54.9294 200.679 51.9083C199.852 49.2801 198.206 48.2559 195.868 48.2559ZM226.784 81.7063H219.458C218.724 81.6548 218.134 81.0651 218.134 80.3406L218.124 42.5755C218.186 41.8824 218.796 41.3443 219.541 41.3443H226.36C227.001 41.3752 227.529 41.8102 227.674 42.3997V48.1732H227.808C229.867 43.0103 232.754 40.5478 237.834 40.5478C241.135 40.5478 244.352 41.7374 246.422 44.9967C248.346 48.0177 248.346 53.0982 248.346 56.7506V80.5165C248.263 81.1787 247.653 81.7063 246.929 81.7063H239.551C238.879 81.6548 238.32 81.158 238.248 80.5165V60.0096C238.248 55.8813 238.724 49.8387 233.644 49.8387C231.854 49.8387 230.209 51.0391 229.391 52.86C228.356 55.1675 228.222 57.4644 228.222 60.0098V80.3406C228.212 81.096 227.57 81.7063 226.784 81.7063ZM128.77 63.6724C128.77 66.5383 128.843 68.9285 127.394 71.4735C126.225 73.543 124.363 74.8154 122.304 74.8154C119.479 74.8154 117.824 72.6636 117.824 69.4871C117.824 63.217 123.442 62.0789 128.77 62.0789V63.6724ZM136.189 81.603C135.703 82.0375 134.999 82.0686 134.451 81.7788C132.009 79.7509 131.564 78.8094 130.229 76.8745C126.194 80.9926 123.328 82.2238 118.103 82.2238C111.906 82.2238 107.094 78.4058 107.094 70.7599C107.094 64.7898 110.322 60.7236 114.937 58.737C118.931 56.978 124.508 56.6676 128.771 56.1813V55.2296C128.771 53.4809 128.905 51.4115 127.87 49.901C126.981 48.5457 125.263 47.9868 123.742 47.9868C120.938 47.9868 118.445 49.4249 117.834 52.4048C117.71 53.067 117.224 53.7188 116.551 53.7499L109.422 52.9843C108.822 52.8498 108.15 52.3635 108.326 51.4427C109.96 42.793 117.782 40.1855 124.777 40.1855C128.357 40.1855 133.034 41.1375 135.858 43.8484C139.438 47.1903 139.097 51.6494 139.097 56.5022V67.9661C139.097 71.4117 140.525 72.922 141.869 74.7845C142.335 75.4467 142.439 76.2435 141.839 76.74C140.338 77.9919 137.669 80.3199 136.2 81.6236L136.189 81.603M32.3299 63.6724C32.3299 66.5383 32.4024 68.9285 30.9537 71.4735C29.7847 73.543 27.9326 74.8154 25.8633 74.8154C23.0388 74.8154 21.3935 72.6636 21.3935 69.4871C21.3935 63.217 27.0118 62.0789 32.3299 62.0789V63.6724ZM39.7483 81.603C39.2622 82.0375 38.5586 82.0686 38.0103 81.7788C35.5685 79.7509 35.1337 78.8094 33.7889 76.8745C29.7536 80.9926 26.8982 82.2238 21.6625 82.2238C15.4754 82.2238 10.6538 78.4058 10.6538 70.7599C10.6538 64.7898 13.8924 60.7236 18.4965 58.737C22.4904 56.978 28.0671 56.6676 32.3299 56.1813V55.2296C32.3299 53.4809 32.4645 51.4115 31.44 49.901C30.5399 48.5457 28.8225 47.9868 27.3118 47.9868C24.5079 47.9868 22.0041 49.4249 21.3935 52.4048C21.2694 53.067 20.7831 53.7188 20.1209 53.7499L12.9818 52.9843C12.3816 52.8498 11.7196 52.3635 11.8851 51.4427C13.5301 42.793 21.3419 40.1855 28.3362 40.1855C31.9159 40.1855 36.5927 41.1375 39.4174 43.8484C42.9971 47.1903 42.6558 51.6494 42.6558 56.5022V67.9661C42.6558 71.4117 44.0836 72.922 45.4287 74.7845C45.9048 75.4467 46.0082 76.2435 45.408 76.74C43.9077 77.9919 41.2384 80.3199 39.7692 81.6236L39.7483 81.603Z" fill="#D0CCC8"/>
</svg>
