<svg width="257" height="126" viewBox="0 0 257 126" fill="none" xmlns="http://www.w3.org/2000/svg">
<path d="M35.736 61.3774H19.4156V44.585H11.2554V86.7548H19.4156V69.1133H35.736V86.7548H43.8962V44.585H35.736V61.3774Z" fill="#D0CCC8"/>
<path d="M98.9542 53.9244C95.2962 53.9244 92.4823 55.1508 90.2312 57.8867V43.8301H83.1028V65.1508C83.1028 72.3206 83.1966 73.1697 84.1345 76.2829C86.198 82.6037 92.0134 86.8489 98.5791 86.8489C107.49 86.8489 114.431 79.6791 114.431 70.3395C114.524 61.2829 107.583 53.9244 98.9542 53.9244ZM98.5791 79.7735C93.7955 79.7735 89.7623 75.5282 89.7623 70.3395C89.7623 65.0565 93.7017 60.9056 98.5791 60.9056C103.269 60.9056 107.208 65.2452 107.208 70.2452C107.208 75.5282 103.269 79.7735 98.5791 79.7735Z" fill="#D0CCC8"/>
<path d="M164.705 54.1133C158.139 54.1133 152.324 58.4529 150.261 64.6793C149.229 67.7925 149.229 68.6416 149.229 75.8114V97.1321H156.357V83.0755C158.608 85.8114 161.422 87.0378 165.08 87.0378C173.709 87.0378 180.65 79.6793 180.65 70.5284C180.556 61.2831 173.616 54.1133 164.705 54.1133ZM164.611 79.9623C159.734 79.9623 155.794 75.8114 155.794 70.5284C155.794 65.3397 159.828 61.0944 164.611 61.0944C169.301 61.0944 173.24 65.434 173.24 70.6227C173.24 75.7171 169.207 79.9623 164.611 79.9623Z" fill="#D0CCC8"/>
<path d="M133.002 61.1888L129.344 59.9624C127.374 59.302 126.155 57.7925 126.155 55.9058C126.155 53.4529 128.218 51.6605 131.501 51.6605C133.94 51.6605 135.441 52.4152 137.692 54.585L138.536 55.4341L143.882 49.868C139.755 44.9624 137.223 43.6416 131.314 43.6416C123.622 43.6416 118.089 48.9246 118.089 56.2831C118.089 61.9435 121.278 66.1888 127.281 68.2642L130.376 69.302C134.878 70.9058 136.097 72.0378 136.097 74.585C136.097 77.4152 133.752 79.3963 130.376 79.3963C127.187 79.3963 124.842 77.9812 122.591 74.7737L117.244 80.6227C121.465 86.0944 124.279 87.5095 130.563 87.5095C138.442 87.5095 144.258 82.0378 144.258 74.4907C144.258 67.8869 140.881 63.9246 133.002 61.1888Z" fill="#D0CCC8"/>
<path d="M241.336 79.9626C236.553 79.9626 235.052 78.7362 235.052 74.4909V62.5098H242.18V55.5287H235.052V46.5664L227.923 50.34V74.5853C227.923 83.5475 231.3 87.4155 239.179 87.4155C240.117 87.4155 240.586 87.3211 242.086 87.3211L243.962 79.7739C242.743 79.9626 242.18 79.9626 241.336 79.9626Z" fill="#D0CCC8"/>
<path d="M69.9714 73.4525C69.9714 77.1317 67.0637 80.0563 63.4057 80.0563H63.0305C59.3724 80.0563 56.4648 77.1317 56.4648 73.4525V54.9619H49.0549V73.6412C49.0549 80.9053 54.9641 86.8487 62.1863 86.8487H63.9684C71.1907 86.8487 77.0998 80.9053 77.0998 73.6412V54.9619H69.9714V73.4525Z" fill="#D0CCC8"/>
<path d="M206.444 51.1886V42.0377C209.633 41.1886 211.884 38.2641 211.884 34.7735C211.884 30.6226 208.508 27.2263 204.381 27.2263C200.254 27.2263 196.877 30.6226 196.877 34.7735C196.877 37.9811 198.847 40.7169 201.661 41.7546V51.1886C199.128 51.4716 196.689 52.3207 194.532 53.5471L169.02 34.2075C169.395 33.2641 169.582 32.2263 169.582 31.0943C169.582 26.566 165.924 22.8867 161.422 22.8867C156.92 22.8867 153.262 26.566 153.262 31.0943C153.262 35.6226 156.92 39.3018 161.422 39.3018C163.111 39.3018 164.705 38.7358 166.018 37.8867L190.499 56.3773C186.653 59.9622 184.308 65.0565 184.308 70.7169C184.308 77.7924 188.06 84.0188 193.594 87.5094L187.497 97.2263C187.31 97.2263 187.028 97.2263 186.841 97.2263C183.558 97.2263 180.838 99.9622 180.838 103.264C180.838 106.566 183.558 109.302 186.841 109.302C190.124 109.302 192.844 106.566 192.844 103.264C192.844 101.943 192.375 100.623 191.624 99.6792L197.909 89.5848C199.785 90.2452 201.848 90.5282 204.005 90.5282C214.886 90.5282 223.609 81.6603 223.609 70.8112C223.796 60.7169 216.199 52.415 206.444 51.1886ZM204.381 82.415C198.002 82.415 192.938 77.2263 192.938 70.9056C192.938 64.4905 198.096 59.3962 204.381 59.3962C210.759 59.3962 215.824 64.5848 215.824 70.9056C215.917 77.2263 210.759 82.415 204.381 82.415Z" fill="#D0CCC8"/>
<path d="M158.233 28.8301C157.483 30.1509 156.357 30.9999 155.795 30.7169C155.232 30.4339 155.419 29.0188 156.17 27.6981C156.92 26.3773 158.046 25.5282 158.608 25.8113C159.171 26.0943 158.984 27.5094 158.233 28.8301Z" fill="#D0CCC8"/>
<path d="M204.568 29.2077C206.163 29.3964 207.382 29.9625 207.101 30.6228C206.913 31.2832 205.412 31.6606 203.818 31.4719C202.223 31.2832 201.004 30.7172 201.285 30.0568C201.567 29.3964 202.974 29.0191 204.568 29.2077Z" fill="#D0CCC8"/>
<path d="M184.027 99.5852C185.246 98.4531 186.466 97.9814 186.747 98.5475C187.122 99.1135 186.372 100.434 185.246 101.566C184.027 102.698 182.808 103.17 182.526 102.604C182.151 102.038 182.808 100.717 184.027 99.5852Z" fill="#D0CCC8"/>
</svg>
