<svg width="206" height="94" viewBox="0 0 206 94" fill="none" xmlns="http://www.w3.org/2000/svg">
<path d="M129.93 42.7924C127.053 39.5289 119.859 38.4589 115.809 42.3644C115.809 39.5289 115.756 36.9074 115.809 34.3394C115.809 33.4834 115.649 33.0554 114.69 33.1624C113.838 33.2694 112.985 33.2694 112.132 33.1624C111.227 33.0554 111.013 33.3764 111.067 34.2324C111.12 40.9734 111.067 47.7679 111.067 54.5089C111.067 57.1304 111.067 57.1304 113.731 57.1304C115.649 57.1304 115.649 57.1304 115.809 55.2044C115.809 55.1509 115.916 55.1509 115.969 55.0974C119.433 58.9494 126.573 57.8259 129.61 54.7764C132.648 51.7804 132.754 45.9489 129.93 42.7924ZM121.724 53.6529C117.781 53.6529 115.223 50.3359 116.502 47.0189C117.408 44.7184 120.179 43.3274 122.896 43.8089C125.561 44.2904 127.266 46.2164 127.212 48.6774C127.212 51.5664 124.868 53.6529 121.724 53.6529Z" fill="#474646"/>
<path d="M170.161 57.1842C167.017 57.1842 163.927 57.1307 160.783 57.1842C159.877 57.1842 159.664 56.9167 159.717 56.0607C159.877 54.2952 159.611 52.4762 159.877 50.6572C160.25 48.5172 161.476 47.1797 163.341 46.2702C165.525 45.2002 167.87 45.0397 170.268 44.9327C172.186 44.8792 174.051 44.7187 175.863 43.9697C177.621 43.1672 178.953 41.9902 179.007 39.8502C179.06 37.6567 177.941 36.2122 176.023 35.4097C172.346 33.9117 168.669 33.9117 164.992 35.3562C163.447 35.9447 162.381 37.0682 162.115 38.7802C161.902 40.0107 160.996 39.3152 160.463 39.3687C159.717 39.4757 159.984 38.7802 160.037 38.4592C160.357 36.5867 161.422 35.1422 163.074 34.2862C165.952 32.7882 169.042 32.4672 172.239 32.7347C173.998 32.8952 175.65 33.2697 177.248 34.0187C179.54 35.1957 180.978 36.9612 180.978 39.6362C180.978 42.2042 179.593 43.9162 177.408 45.0932C175.17 46.2702 172.772 46.5912 170.321 46.6447C168.403 46.6982 166.538 46.8587 164.726 47.6077C162.808 48.4102 161.849 49.8012 161.902 51.8877C161.902 52.9577 161.582 54.4022 162.115 55.0442C162.701 55.7932 164.14 55.2582 165.259 55.2582C170.055 55.3117 174.85 55.2582 179.646 55.2582C180.339 55.2582 180.818 55.2047 180.818 56.2212C180.818 57.2377 180.232 57.0237 179.699 57.0237C176.502 57.1842 173.305 57.1842 170.161 57.1842Z" fill="#474646"/>
<path d="M153.269 42.5778C149.646 38.9933 142.718 39.0468 139.148 42.6313C138.775 43.0058 138.456 43.3803 138.029 43.9153C138.029 42.8988 137.976 42.0428 138.029 41.2403C138.083 40.4378 137.869 40.1703 137.017 40.1703C136.164 40.1703 136.111 40.5448 136.111 41.2403C136.111 48.5698 136.111 55.8993 136.111 63.2288C136.111 63.8173 136.004 64.3523 136.964 64.3523C137.816 64.3523 137.976 64.0313 137.976 63.2823C137.923 60.1793 137.976 57.0228 137.976 53.5988C138.775 54.6688 139.415 55.3643 140.214 55.9528C142.985 57.8788 146.022 58.0393 149.113 57.2368C152.31 56.4343 154.601 54.5083 155.401 51.1378C156.093 47.8743 155.614 44.9853 153.269 42.5778ZM153.695 49.6398C153.429 52.8498 150.978 55.3108 147.621 55.7388C144.21 56.2203 141.226 55.4713 139.202 52.4753C137.71 50.2818 137.656 47.8208 138.882 45.4668C140.107 43.1128 142.186 41.9358 144.797 41.6683C145.17 41.6148 145.596 41.6683 145.969 41.6683C146.981 41.6148 147.994 41.7218 148.953 42.0428C152.31 43.1128 154.015 45.7878 153.695 49.6398Z" fill="#474646"/>
<path d="M201.067 41.0266C198.509 39.7961 195.845 39.6356 193.127 40.3846C191.103 40.9731 189.504 42.1501 188.065 43.9156C188.065 42.8456 188.012 42.0431 188.065 41.2406C188.119 40.4916 187.959 40.1706 187.106 40.1706C186.2 40.1706 186.147 40.5451 186.147 41.2941C186.147 48.6236 186.147 55.9531 186.147 63.2291C186.147 63.9246 186.2 64.2991 187.053 64.2991C187.905 64.2991 188.065 63.9781 188.065 63.2291C188.012 60.1261 188.065 56.9696 188.065 53.5991C191.103 57.1836 194.62 58.2536 199.202 57.1836C202.985 56.2741 205.383 53.4921 205.81 49.4796C206.129 45.8951 204.318 42.5781 201.067 41.0266ZM197.87 55.7391C195.685 56.0601 193.607 55.8996 191.635 54.7761C188.918 53.1711 187.586 50.0681 188.332 46.9116C189.024 44.1296 191.849 41.7756 194.779 41.6686C195.206 41.6686 195.632 41.6686 196.058 41.6686C198.669 41.6686 201.014 42.3106 202.559 44.5576C205.65 48.9981 203.092 54.8831 197.87 55.7391Z" fill="#474646"/>
<path d="M97.7984 45.1459C97.7984 48.7839 97.7984 52.4219 97.7984 56.0599C97.7984 56.8624 97.6919 57.2904 96.7327 57.1834C95.8268 57.0764 94.921 57.1299 94.0684 57.1834C93.2158 57.2369 93.0559 56.9694 93.0559 56.1669C93.1092 50.5494 93.0559 44.9319 93.0559 39.2609C93.0559 37.6024 93.1092 35.8904 93.0559 34.2319C93.0027 33.3224 93.3224 33.1084 94.175 33.1619C95.0808 33.2154 95.9867 33.2154 96.8393 33.1619C97.6386 33.1084 97.7984 33.4294 97.7984 34.1784C97.7984 37.8164 97.7984 41.5079 97.7984 45.1459Z" fill="#474646"/>
<path d="M102.008 48.5702C102.008 46.0557 102.008 43.5412 102.008 41.0802C102.008 40.3847 102.168 40.1172 102.914 40.1172C103.979 40.1707 104.992 40.1707 106.057 40.1172C106.697 40.1172 106.857 40.3312 106.857 40.9197C106.857 46.0557 106.857 51.2452 106.857 56.3812C106.857 56.9697 106.697 57.1837 106.111 57.1302C106.057 57.1302 106.057 57.1302 106.004 57.1302C104.725 57.1302 103.073 57.5582 102.274 56.9162C101.475 56.2207 102.061 54.5087 102.008 53.2247C101.954 51.7267 102.008 50.1752 102.008 48.5702Z" fill="#474646"/>
<path d="M104.406 32.9482C106.058 32.9482 107.23 33.9647 107.23 35.4092C107.23 36.8537 106.005 37.9237 104.353 37.9237C102.754 37.8702 101.528 36.8537 101.582 35.4092C101.582 34.0182 102.807 32.9482 104.406 32.9482Z" fill="#474646"/>
<path d="M25.9148 86.0738C22.1848 83.9338 18.508 81.7938 14.7779 79.6538C10.2486 77.0323 5.71926 74.3573 1.18992 71.6823C0.657057 71.3613 0.390625 71.0938 0.390625 70.3983C0.443911 65.6903 0.443912 60.9288 0.443912 56.2208C0.76363 56.0603 1.08335 56.2208 1.34978 56.3813C5.23969 58.6283 9.18288 60.8218 12.9662 63.1758C13.0728 63.2293 13.1261 63.3363 13.2326 63.3898C13.3392 63.5503 13.4458 63.7108 13.4991 63.8713C13.7655 65.9578 13.5524 67.9908 13.6056 70.0773C13.6589 72.2708 13.6056 74.4643 13.6056 76.6578C13.6056 77.9953 13.7122 78.0488 14.8845 77.3533C18.0817 75.4273 21.3322 73.6083 24.5826 71.7358C25.0622 71.4683 25.5951 70.9868 26.128 71.6823C26.3411 72.6453 26.2345 73.6083 26.2345 74.6248C26.2345 77.8883 26.2345 81.2053 26.2345 84.4688C26.2345 85.0038 26.3411 85.5923 25.9148 86.0738Z" fill="#8DD5E3"/>
<path d="M26.128 8.33822C30.231 5.93072 34.3341 3.57672 38.3839 1.16922C38.8102 0.955224 39.1299 0.901725 39.5562 1.11572C43.6592 3.52322 47.709 5.93072 51.812 8.33822C51.9186 8.81972 51.5456 8.98022 51.2259 9.08722C47.2294 11.3342 43.3395 13.7952 39.2364 15.9352C39.1299 15.9887 39.0233 15.9887 38.9167 15.9887C37.1583 15.3467 35.6663 14.2232 34.0144 13.3137C31.3501 11.8157 28.6857 10.2107 26.0747 8.65922C26.0747 8.49872 26.0747 8.39172 26.128 8.33822Z" fill="#C4CD44"/>
<path d="M77.6562 71.5214C73.4998 74.0359 69.2902 76.4969 65.0273 78.7974C64.974 78.7439 64.9207 78.6904 64.8674 78.6369C64.7076 78.2624 64.6543 77.8879 64.6543 77.5134C64.6543 73.3404 64.6543 69.1674 64.6543 65.0479C64.6543 64.6734 64.7076 64.3524 64.7609 64.0314C64.9207 63.5499 65.347 63.3359 65.72 63.0684C69.2902 60.9284 72.8604 58.8954 76.4306 56.8624C77.5496 56.2204 77.7095 56.3274 77.7095 57.6649C77.7095 61.9449 77.7095 66.2784 77.7095 70.5584C77.7627 70.8259 77.816 71.1469 77.6562 71.5214Z" fill="#C14C75"/>
<path d="M1.34984 39.101C0.337402 38.4055 0.337402 37.389 0.337402 36.2655C0.390689 32.253 0.337403 28.294 0.390689 24.2815C0.390689 23.907 0.177543 23.4255 0.603834 23.1045C4.01416 24.9235 7.31792 27.01 10.675 28.9895C11.5808 29.5245 12.54 29.9525 13.3393 30.648C13.3926 30.755 13.4459 30.862 13.4991 30.969C13.6057 31.397 13.6057 31.825 13.4459 32.253C12.5933 33.2695 11.3677 33.6975 10.2487 34.3395C7.42449 35.998 4.60031 37.603 1.82942 39.2615C1.66956 39.208 1.5097 39.208 1.34984 39.101Z" fill="#F9C132"/>
<path d="M1.34984 55.3643C0.497261 54.9363 0.337402 54.2943 0.337402 53.3848C0.390689 48.8373 0.390689 44.3433 0.443976 39.7958C0.763694 39.5283 1.03013 39.7423 1.29656 39.9028C5.18646 42.2034 9.12966 44.4503 13.0196 46.8043C13.1261 46.8578 13.1794 46.9648 13.286 47.0183C13.3393 47.1253 13.3926 47.2323 13.3926 47.3393C13.5524 48.5698 12.9663 49.2653 11.9005 49.8538C8.80994 51.5123 5.8259 53.3313 2.78858 55.0968C2.46886 55.3108 2.09585 55.5248 1.72285 55.5248C1.56299 55.4713 1.45642 55.4178 1.34984 55.3643Z" fill="#F9C132"/>
<path d="M77.3895 38.6725C77.1764 38.833 76.9632 38.9935 76.7501 39.154C76.6435 39.2075 76.5369 39.261 76.4304 39.261C73.7128 38.0305 71.2083 36.372 68.6505 34.8205C67.3717 34.0715 65.9329 33.483 64.8139 32.413C64.6008 31.9315 64.6541 31.3965 64.8139 30.915C64.8672 30.701 65.0271 30.594 65.1336 30.4335C68.8104 28.133 72.647 25.993 76.4304 23.853C77.4961 23.2645 77.7092 23.3715 77.7092 24.602C77.7092 28.882 77.7092 33.2155 77.7092 37.4955C77.7625 37.87 77.8158 38.3515 77.3895 38.6725Z" fill="#994F9F"/>
<path d="M77.6025 55.0433C77.2828 55.2573 77.0164 55.5248 76.6967 55.7388C76.5901 55.7923 76.4835 55.8458 76.377 55.8458C72.4871 53.5988 68.6504 51.2983 64.8138 48.9978C64.4408 48.5698 64.3875 48.0883 64.5474 47.5533C64.6007 47.3393 64.7072 47.1788 64.8671 47.0718C67.9044 45.1458 71.0483 43.4873 74.1389 41.6683C74.9915 41.1333 75.8441 40.5983 76.75 40.1703C77.2828 39.9563 77.7091 39.8493 77.7091 40.7053C77.7091 45.4133 77.7091 50.0678 77.7091 54.7758C77.7624 54.8293 77.7091 54.9363 77.6025 55.0433Z" fill="#994F9F"/>
<path d="M77.3894 38.6725C77.6026 38.2445 77.6026 37.763 77.6026 37.2815C77.6026 33.1085 77.5493 28.9355 77.6026 24.7625C77.6026 23.5855 77.2296 23.6925 76.4836 24.1205C72.7002 26.314 68.9702 28.454 65.1869 30.6475C64.5474 30.594 64.654 30.059 64.6007 29.6845C64.6007 25.5115 64.4941 21.3385 64.654 17.112C64.654 16.7375 64.6007 16.3095 64.9737 16.042C67.8512 17.4865 70.5688 19.252 73.393 20.857C74.6718 21.5525 75.8441 22.355 77.123 23.0505C77.6559 23.3715 77.869 23.746 77.869 24.388C77.869 28.8285 77.869 33.2155 77.869 37.656C77.869 37.977 78.0822 38.512 77.3894 38.6725Z" fill="#AA6AAA"/>
<path d="M39.2899 93.6175C39.1301 93.8315 38.9702 93.778 38.8103 93.671C34.654 91.21 30.4977 88.8025 26.3413 86.3415C26.2348 86.288 26.1815 86.181 26.0749 86.1275C25.915 83.0245 26.0216 79.975 26.0216 76.872C26.0216 75.053 25.915 73.1805 26.0749 71.3615C26.1815 71.2545 26.288 71.2545 26.4479 71.3615C26.7676 71.843 26.7143 72.4315 26.7143 72.9665C26.7143 76.7115 26.7143 80.4565 26.7143 84.2015C26.7143 85.539 26.8209 85.5925 27.9932 84.9505C31.2437 83.078 34.4409 81.2055 37.6913 79.3865C38.1709 79.119 38.6505 78.6375 39.2366 79.2795C39.3965 79.654 39.3965 80.0285 39.3965 80.4565C39.3965 84.6295 39.3965 88.749 39.3965 92.922C39.3965 93.0825 39.3432 93.35 39.2899 93.6175Z" fill="#4BACCE"/>
<path d="M39.2366 15.8287C43.0199 13.6352 46.8032 11.3882 50.6399 9.14116C51.0661 8.87366 51.4924 8.60616 51.9187 8.28516C52.0253 8.33866 52.1319 8.39216 52.1852 8.44566C52.5049 8.87366 52.5582 9.40866 52.5582 9.89016C52.5582 14.1702 52.5582 18.5037 52.5582 22.7837C52.5582 22.9977 52.5582 23.2117 52.345 23.3722C52.1852 23.4792 51.972 23.4792 51.7589 23.4792C47.7624 21.2857 43.8192 18.8782 39.876 16.5242C39.5563 16.4172 39.1833 16.2567 39.2366 15.8287Z" fill="#E35B8F"/>
<path d="M13.2862 30.6474C11.0481 29.6844 9.02325 28.2399 6.8918 27.0629C5.02677 26.0464 3.26832 24.9229 1.45659 23.9064C1.08358 23.6924 0.817149 23.4784 0.604004 23.1039C4.76034 20.5359 8.96997 18.1819 13.2329 15.7744C13.2862 15.8279 13.3395 15.8814 13.3927 15.9349C13.6059 16.3094 13.6059 16.7374 13.6059 17.1654C13.6059 21.1779 13.6059 25.1904 13.6059 29.2029C13.6059 29.6309 13.6059 30.0589 13.3927 30.4334C13.3927 30.5404 13.3395 30.5939 13.2862 30.6474Z" fill="#F6DF1D"/>
<path d="M39.2899 93.6169C38.8636 93.2424 39.0235 92.7609 39.0235 92.3329C39.0235 87.8924 39.0235 83.4519 39.0235 79.0114C38.9702 78.7974 39.0768 78.6904 39.2899 78.6904C43.393 80.9909 47.496 83.3984 51.5458 85.8059C51.7057 85.9129 51.8122 86.0199 51.8655 86.1269C51.8655 86.1804 51.9188 86.2339 51.9188 86.2874C47.7625 88.8554 43.5528 91.2629 39.2899 93.6169Z" fill="#3C9FBD"/>
<path d="M26.1282 8.33789C26.1282 8.39139 26.1282 8.49839 26.1282 8.55189C26.3946 8.81939 26.5012 9.14039 26.4479 9.51489C26.4479 13.9019 26.6078 18.2889 26.3946 22.7294C26.0216 23.6924 25.3822 23.2109 24.9026 22.8899C22.0785 21.2314 19.201 19.6264 16.3768 17.9144C15.3111 17.2724 14.1388 16.8444 13.2862 15.9349C13.2862 15.8814 13.2329 15.8814 13.2329 15.8279C17.4958 13.2064 21.812 10.6919 26.1282 8.33789Z" fill="#CDDC41"/>
<path d="M52.132 23.3718C52.2385 23.3183 52.2918 23.2113 52.3984 23.1578C52.8247 22.3553 53.6773 22.1948 54.37 21.7668C57.4606 19.9478 60.5512 18.1823 63.6418 16.3633C64.0148 16.1493 64.3878 15.9353 64.8141 15.8818C64.9207 15.9353 64.974 15.9888 65.0806 16.0423C65.0273 20.5363 64.974 25.0303 64.974 29.5778C64.974 29.9523 64.9207 30.3803 65.2937 30.6478C65.2404 30.7013 65.1338 30.8083 65.0806 30.8618C64.7076 31.0758 64.3878 30.8618 64.1214 30.6478C60.2315 28.3473 56.2883 26.1538 52.3984 23.7998C52.3451 23.7463 52.2918 23.6928 52.2385 23.6393C52.0787 23.5858 52.0787 23.4788 52.132 23.3718Z" fill="#A6529B"/>
<path d="M64.9738 78.7973C60.6576 81.4188 56.3414 83.9333 51.9186 86.3408L51.8654 86.2873C51.7588 85.9128 51.7588 85.5383 51.7588 85.1103C51.7588 81.2048 51.7588 77.2993 51.7588 73.3938C51.7588 72.9123 51.7588 72.3773 51.8654 71.8958C52.3449 70.8793 52.9844 71.5213 53.5172 71.7888C55.4888 72.9123 57.4071 74.0893 59.3787 75.2128C60.7642 76.0153 62.0963 76.8178 63.4818 77.6203C64.0147 77.9413 64.6541 78.1018 64.9205 78.7438L64.9738 78.7973Z" fill="#3C9FBD"/>
<path d="M64.7606 15.882C62.8423 17.273 60.7641 18.343 58.7392 19.52C56.6611 20.804 54.4763 21.9275 52.3982 23.1045C52.0784 22.837 52.185 22.4625 52.185 22.1415C52.185 17.594 52.185 13.0465 52.185 8.49902C56.3946 10.9065 60.6043 13.314 64.7606 15.882Z" fill="#EF65A1"/>
<path d="M76.4302 55.7391C76.5368 55.7391 76.5901 55.7391 76.6966 55.7391C77.6558 56.0601 77.8689 56.7021 77.8689 57.7186C77.8157 61.9451 77.8689 66.1181 77.8157 70.3446C77.8157 70.7191 78.0288 71.2006 77.6025 71.5216C77.6025 66.9206 77.6025 62.2661 77.6025 57.6651C77.6025 57.3441 77.7624 56.9161 77.4427 56.7021C77.1762 56.5416 76.9098 56.9161 76.6434 57.0766C72.7535 59.3236 68.8103 61.5706 64.9204 63.8176C64.8138 63.8711 64.7605 63.9246 64.6539 63.9246C64.2809 63.8711 63.9612 63.7106 63.748 63.3361C63.748 63.2291 63.7481 63.1221 63.8013 63.0151C64.0678 62.6406 64.4941 62.5336 64.8138 62.2661C64.9203 62.2126 64.9736 62.1591 65.0802 62.1056C68.2774 60.3401 71.4213 58.4676 74.5652 56.6486C75.1513 56.2206 75.6842 55.6856 76.4302 55.7391Z" fill="#D45182"/>
<path d="M77.6026 55.0436C77.6026 50.1216 77.6026 45.1461 77.6026 40.0101C73.2865 42.5246 69.1301 44.9321 64.9738 47.2861C64.6008 46.9116 64.6541 46.4836 64.7606 46.0556C64.9205 45.6276 65.2935 45.3601 65.6665 45.1461C69.0235 43.2201 72.3273 41.2941 75.6843 39.3681C75.8975 39.2076 76.2172 39.2076 76.4303 39.1006C76.5369 39.1006 76.6435 39.1006 76.6968 39.1006C77.8691 39.7426 77.8691 40.8126 77.8158 41.9361C77.7625 45.8951 77.8158 49.9076 77.7625 53.8666C77.8691 54.2411 78.0822 54.7226 77.6026 55.0436Z" fill="#AA69AA"/>
<path d="M1.34972 55.365C1.403 55.365 1.45629 55.3115 1.50958 55.3115C2.30887 55.365 2.89502 55.793 3.53446 56.1675C6.57178 57.933 9.55582 59.6985 12.5931 61.464C12.9129 61.6245 13.1793 61.8385 13.3924 62.106C13.4457 62.213 13.499 62.32 13.5523 62.427C13.5523 62.855 13.7654 63.3365 13.0727 63.497C8.8631 61.0895 4.65347 58.6285 0.443848 56.221C0.55042 55.7395 1.13657 55.7395 1.34972 55.365Z" fill="#A9DDE6"/>
<path d="M13.2859 47.072C10.9413 46.002 8.80981 44.5575 6.62507 43.2735C4.5469 42.0965 2.52202 40.9195 0.443848 39.7425C0.55042 39.261 1.03 39.2075 1.34972 39.047C1.50957 39.047 1.66943 39.047 1.77601 39.047C2.2023 38.8865 2.52202 39.154 2.84173 39.368C5.82577 41.187 8.91638 42.899 11.9004 44.718C12.4333 45.039 13.0194 45.3065 13.3392 45.895C13.499 46.2695 13.499 46.5905 13.3392 46.965C13.3924 46.965 13.3392 47.0185 13.2859 47.072Z" fill="#F6DF1D"/>
<path d="M26.3942 71.2541C26.0212 71.6286 26.1811 72.1636 26.1811 72.5916C26.1811 77.0856 26.1278 81.6331 26.1278 86.1271C26.0745 86.1271 26.0212 86.0736 25.9147 86.0736C25.9147 81.2051 25.9147 76.3901 25.9147 71.5216C25.7548 71.3611 25.7548 71.2006 25.8614 71.0401C26.0212 70.9331 26.1811 70.8796 26.341 70.9331C26.3942 70.9866 26.4475 71.0401 26.4475 71.0936C26.3942 71.2006 26.3942 71.2541 26.3942 71.2541Z" fill="#8DD5E3"/>
<path d="M25.915 71.0407C25.915 71.2012 25.915 71.3617 25.915 71.5222C23.8901 72.3782 22.0784 73.6622 20.1068 74.6787C18.0819 75.7487 16.1103 76.9257 14.192 78.1027C13.3394 78.6377 13.2861 78.3167 13.2861 77.5677C13.2861 72.9667 13.2861 68.3657 13.2861 63.7647C13.7124 63.4437 14.0321 63.7647 14.3519 63.9787C17.9753 66.0652 21.5455 68.1517 25.169 70.2382C25.4887 70.3987 25.8084 70.6127 25.915 71.0407Z" fill="#7ECCDB"/>
<path d="M25.9148 71.0397C21.7051 68.5787 17.5488 66.0642 13.2859 63.7637C13.2326 63.7102 13.126 63.6032 13.0728 63.5497C13.4458 63.2287 13.2326 62.7472 13.2859 62.3727C13.9786 62.2122 14.4582 62.6402 14.9911 62.9612C18.7211 65.1547 22.4512 67.2412 26.1279 69.4347C26.2878 69.5417 26.3944 69.5952 26.5542 69.7022C26.8739 69.9697 27.4601 70.0767 27.4068 70.6652C27.1404 71.0932 26.8739 71.3072 26.3944 71.0397C26.2345 71.0397 26.0746 71.0397 25.9148 71.0397Z" fill="#98D6DE"/>
<path d="M26.1279 23.1038C26.1279 18.2353 26.1279 13.3668 26.1279 8.55176C28.0995 9.19376 29.698 10.5313 31.5098 11.5478C34.0142 12.9388 36.5187 14.4368 38.9699 15.8813C39.183 16.2023 39.3429 16.5768 39.3429 16.9513C39.3429 21.3918 39.4495 25.8323 39.2896 30.2728C38.8633 31.2358 38.2771 30.7008 37.7976 30.4333C34.8135 28.7213 31.8295 27.0093 28.8987 25.2438C27.9396 24.7088 26.9272 24.2808 26.1279 23.4783C26.0746 23.3178 26.0746 23.2108 26.1279 23.1038Z" fill="#C5D52C"/>
<path d="M39.0233 30.6476C39.0233 25.7256 39.0233 20.7501 39.0233 15.8281C39.0766 15.8281 39.1832 15.8281 39.2365 15.8281C43.0198 18.0751 46.8032 20.3221 50.5865 22.5691C51.0128 22.7831 51.4391 22.9436 51.7055 23.3716C51.7588 23.7461 51.4924 23.9601 51.2259 24.1206C47.2827 26.4211 43.4461 28.7751 39.4496 30.9686C39.3431 31.0221 39.2365 31.0221 39.1299 30.9686C39.0233 30.8616 38.9701 30.7546 39.0233 30.6476Z" fill="#C7C631"/>
<path d="M64.7605 63.8174C64.8138 63.8174 64.8671 63.8174 64.9737 63.8174C64.9737 68.7929 64.9204 73.7684 64.9204 78.7439C61.1371 76.5504 57.407 74.3569 53.6237 72.1634C53.1441 71.8959 52.7178 71.5749 52.1317 71.5214C52.0251 71.5749 51.9185 71.5749 51.8652 71.4679C51.8652 71.3609 51.8652 71.2539 51.9185 71.1469C54.2098 69.5954 56.661 68.3114 59.0589 66.9204C60.4976 66.0644 61.9364 65.2619 63.3751 64.4059C63.8014 64.1384 64.2277 63.8709 64.7605 63.8174Z" fill="#368DAC"/>
<path d="M13.2862 32.2532C13.2862 31.7717 13.2862 31.2902 13.2862 30.8622C13.7658 30.5412 14.0855 30.9157 14.4585 31.1297C18.2951 33.3767 22.185 35.6237 26.0217 37.8707C26.1282 37.9242 26.2348 37.9777 26.2881 38.0312C26.5012 38.1917 26.7677 38.4057 26.7144 38.7267C26.6078 39.2082 26.7677 39.8502 25.9684 39.9572C25.0625 39.4757 24.2632 39.6897 23.4639 40.1712C20.5332 41.9367 17.5491 43.5952 14.6184 45.3072C14.0322 45.6282 13.3395 46.1632 12.9665 45.0397C12.8066 41.1342 12.9132 37.2287 12.9132 33.3767C12.9132 33.0022 13.0731 32.6277 13.2862 32.2532Z" fill="#F09320"/>
<path d="M26.1282 38.1373C23.4105 36.7998 20.9061 35.1413 18.2951 33.6968C16.5899 32.7873 15.0446 31.6103 13.2861 30.8613C13.2861 30.8078 13.2861 30.7008 13.2861 30.6473C14.3519 29.6843 15.6307 29.0958 16.8563 28.4003C19.4674 26.8488 22.1317 25.3508 24.7427 23.7993C25.169 23.5318 25.5953 23.2108 26.1282 23.5318C26.4479 23.8528 26.5012 24.2808 26.5012 24.7088C26.5544 28.7748 26.5012 32.8408 26.5012 36.9068C26.5012 37.3883 26.5012 37.8163 26.1282 38.1373Z" fill="#F5AE1A"/>
<path d="M13.2862 32.2529C13.2862 36.6399 13.2862 41.0269 13.2862 45.4139C13.3927 45.5209 13.446 45.6279 13.3927 45.7884C13.3394 45.8419 13.3394 45.8419 13.2862 45.8954C9.55612 43.4344 5.61292 41.4014 1.82959 39.0474C2.89532 37.9239 4.33405 37.3889 5.61292 36.6399C8.11738 35.0884 10.6751 33.6974 13.2862 32.2529Z" fill="#F6BE1E"/>
<path d="M13.2328 62.1596C9.34286 59.9126 5.45296 57.6121 1.50977 55.3651C3.26822 54.7231 4.76024 53.5461 6.35883 52.6901C8.22385 51.6736 9.9823 50.5501 11.8473 49.6406C12.8598 49.1056 13.0196 48.2496 13.2861 47.3936C13.3393 47.4471 13.3926 47.5006 13.4459 47.5541C13.6058 47.8751 13.6591 48.1961 13.6591 48.5706C13.6591 52.7436 13.6591 56.9166 13.6591 61.0896C13.6591 61.3571 13.6058 61.6246 13.5525 61.8921C13.4459 61.9456 13.3393 62.0526 13.2328 62.1596Z" fill="#EEBB2F"/>
<path d="M13.2861 47.286C13.2861 47.2325 13.2861 47.1255 13.2861 47.072C13.5526 46.751 13.8723 46.4835 14.2453 46.2695C14.4584 46.216 14.6716 46.323 14.8847 46.3765C18.6148 48.5165 22.2915 50.7635 26.0216 52.85C26.5012 53.1175 26.9807 53.385 27.407 53.7595C27.4603 53.8665 27.4603 53.9735 27.4603 54.0805C27.1939 54.5085 26.7676 54.7225 26.2347 54.7225C24.796 54.4015 23.677 53.4385 22.4514 52.743C19.7338 51.1915 17.0695 49.64 14.3519 48.035C13.8723 47.8745 13.5526 47.6605 13.2861 47.286Z" fill="#F5AE1A"/>
<path d="M52.1316 23.5859C54.4762 24.6559 56.6076 26.1004 58.7924 27.3844C60.8706 28.5614 62.8954 29.7384 64.9736 30.9154C64.9736 31.4504 64.9736 31.9854 64.9736 32.5739C65.4532 33.3229 65.3466 34.1254 65.1867 34.9279C64.6539 35.5164 64.6006 34.9279 64.494 34.6069C64.3875 33.9649 64.4407 33.2694 64.4407 32.6274C64.4407 31.7714 64.1743 31.7179 63.4816 32.0924C60.2311 33.9649 56.9806 35.8909 53.7302 37.8169C53.4105 38.0309 53.0907 38.2449 52.7177 38.3519C52.3447 38.5124 52.025 38.5124 51.8651 38.0309C51.652 36.9609 51.7586 35.9444 51.7586 34.8744C51.7586 31.6644 51.7586 28.4544 51.7586 25.2444C51.7586 24.6559 51.652 24.0674 52.1316 23.5859Z" fill="#823490"/>
<path d="M64.9736 35.0883C64.9736 34.2323 64.9736 33.3763 64.9736 32.4668C66.5189 33.1088 67.9043 34.0718 69.2898 34.8743C71.6877 36.2653 74.0323 37.6563 76.4302 39.0473C75.0447 40.2778 73.3396 40.9733 71.7942 41.9363C69.5562 43.3273 67.2116 44.6113 64.9736 45.8953C64.9203 45.8418 64.867 45.7883 64.8137 45.7348C64.6006 45.3603 64.6006 44.9323 64.6006 44.5043C64.6006 41.8293 64.6006 39.2078 64.6006 36.5328C64.6539 36.0513 64.6006 35.5163 64.9736 35.0883Z" fill="#8E3E94"/>
<path d="M64.7608 47.5534C64.7608 48.0349 64.7075 48.5164 64.9739 48.9444C65.2403 49.2119 65.2403 49.5864 65.2403 49.9074C64.9739 53.8664 65.1871 57.8254 65.1338 61.7844C65.1338 61.9984 65.1338 62.1589 64.9739 62.3194C64.4943 62.5869 64.1213 62.3194 63.8016 62.1054C60.0183 59.8584 56.2349 57.6649 52.4516 55.4179C52.2918 55.3644 52.1852 55.2039 52.1319 55.0969C52.0786 54.9899 52.0786 54.8829 52.0786 54.7759C52.6115 54.0269 53.4641 53.6524 54.2634 53.2244C57.4605 51.4589 60.5511 49.5329 63.7483 47.7674C64.0148 47.6604 64.3345 47.3394 64.7608 47.5534Z" fill="#8B3992"/>
<path d="M64.974 62.3193C64.7075 60.2328 64.8674 58.1463 64.8674 56.1133C64.8141 53.7058 64.9207 51.3518 64.974 48.9443C66.6258 49.5863 68.0646 50.6563 69.6099 51.5123C71.7413 52.7428 73.8195 53.9733 75.8977 55.2573C76.1108 55.3643 76.2174 55.5783 76.3772 55.7388C73.4465 57.4508 70.5157 59.1628 67.585 60.8748C66.7857 61.4098 65.8798 61.8378 64.974 62.3193Z" fill="#923C90"/>
<path d="M64.7607 47.5535C60.5511 50.0145 56.2882 52.422 52.0785 54.883C51.972 54.9365 51.8654 54.9365 51.8121 54.9365C51.4391 54.776 51.0128 54.669 50.9062 54.1875C50.9595 54.027 51.0128 53.92 51.1727 53.813C51.4391 53.6525 51.7055 53.4385 51.9187 53.278C52.0253 53.2245 52.0785 53.171 52.1851 53.1175C56.1283 50.7635 60.1781 48.463 64.1213 46.109C64.3877 45.9485 64.6541 45.788 64.9739 45.895L65.0271 45.9485C65.0271 46.43 65.0271 46.858 65.0271 47.3395C64.9206 47.393 64.814 47.4465 64.7607 47.5535Z" fill="#9C529F"/>
<path d="M39.2366 78.7981C39.13 78.8516 39.0768 78.9586 38.9702 79.0121C37.0519 79.7076 35.4533 80.9916 33.6948 81.9011C31.5101 83.0781 29.3786 84.3086 27.2472 85.5926C26.3946 86.1276 26.3413 85.8066 26.3413 85.0041C26.3413 80.4566 26.3413 75.9626 26.3413 71.4151C26.7676 71.0941 27.1406 71.4151 27.5136 71.6291C30.7108 73.5551 34.0145 75.3206 37.1584 77.3001C37.9045 77.7816 38.7038 78.0491 39.4498 78.4236C39.5563 78.6911 39.503 78.7981 39.2366 78.7981Z" fill="#39A4CA"/>
<path d="M39.503 78.5307C38.3307 78.6377 37.4781 77.8887 36.5722 77.3537C33.3218 75.4812 30.1246 73.5551 26.9274 71.6826C26.7675 71.5756 26.5544 71.5756 26.3945 71.5221C26.3945 71.4151 26.3945 71.3616 26.3945 71.2546C26.3945 71.2011 26.3945 71.0942 26.3945 71.0407C26.7675 70.9872 27.0873 70.8802 27.3537 70.5592C27.4603 70.5057 27.5668 70.4521 27.6734 70.4521C29.0588 70.9336 30.1779 71.8432 31.4567 72.5387C34.0145 73.9832 36.4124 75.5881 39.0234 76.8721C40.4088 76.4976 41.4746 75.6417 42.7002 74.9462C45.0448 73.6622 47.3361 72.3246 49.6274 70.9871C50.0004 70.7731 50.3734 70.5592 50.7997 70.5592C51.2793 70.6127 51.8121 70.6127 51.8654 71.3082C51.8654 71.3617 51.8654 71.4686 51.8654 71.5221C50.6931 72.5921 49.2544 73.1807 47.9222 73.9832C45.5243 75.4277 43.0732 76.8186 40.622 78.2096C40.3023 78.3701 39.9826 78.6912 39.503 78.5307Z" fill="#48B7D6"/>
<path d="M52.132 23.5859C52.132 28.5079 52.132 33.4299 52.132 38.3519C52.0787 38.4054 52.0254 38.4054 51.9721 38.4589C51.7057 38.4589 51.4393 38.3519 51.1728 38.2449C47.3895 36.1584 43.7127 33.9649 39.9827 31.7179C39.663 31.5039 39.1301 31.4504 39.1834 30.8619C42.9667 28.6149 46.7501 26.3679 50.5334 24.1209C50.9064 23.9069 51.386 23.7464 51.6524 23.3184C51.759 23.3184 51.9188 23.3184 52.0254 23.3184C52.132 23.4254 52.132 23.4789 52.132 23.5859Z" fill="#884189"/>
<path d="M25.7019 23.5858C21.9185 25.7793 18.1352 27.9728 14.3519 30.1663C14.0321 30.3803 13.7124 30.5943 13.2861 30.6478C13.2861 25.7258 13.2861 20.8038 13.2861 15.8818C16.3767 17.3798 19.2542 19.3593 22.2915 21.0178C23.5704 21.7133 24.7427 22.6228 26.1282 23.1578C26.1282 23.2113 26.1282 23.3183 26.1282 23.3718C26.0216 23.5323 25.8084 23.4253 25.7019 23.5858Z" fill="#EED90A"/>
<path d="M39.5027 78.5298C43.0196 76.4968 46.5365 74.4103 50.0534 72.4308C50.6395 72.1098 51.1724 71.5748 51.9184 71.4678C51.9717 71.4678 52.0783 71.4678 52.1316 71.4678C52.1316 75.9618 52.1316 80.4023 52.1316 84.8963C52.1316 85.3778 52.1849 85.8593 51.8651 86.2338C48.2417 84.1473 44.6182 82.0073 40.9947 79.8673C40.4086 79.4928 39.6626 79.3858 39.2896 78.7438C39.3428 78.6903 39.3961 78.6368 39.5027 78.5298Z" fill="#2A99B8"/>
<path d="M63.855 63.0692C63.855 63.1227 63.855 63.2297 63.855 63.2832C62.5761 64.2997 61.0841 64.9952 59.6987 65.8512C57.5139 67.1352 55.3292 68.4192 53.0911 69.5962C52.7181 69.8102 52.2386 70.3452 51.8656 69.5427C51.5991 67.2957 51.759 65.1022 51.759 62.8552C51.759 60.8757 51.6524 58.8962 51.8656 56.9167C52.1853 56.0607 52.7714 56.5422 53.1977 56.7562C54.6897 57.6122 56.1818 58.4682 57.6738 59.3242C59.6987 60.5547 61.8301 61.6247 63.855 63.0692Z" fill="#854598"/>
<path d="M63.8547 63.0692C62.0963 62.5342 60.6576 61.3572 59.1123 60.5012C56.7677 59.2172 54.4763 57.8262 52.185 56.4887C51.812 56.0072 51.812 55.5257 52.185 55.0977C54.3698 56.1142 56.3414 57.4517 58.4195 58.6287C60.6576 59.8592 62.6824 61.4107 65.027 62.3737C64.7073 62.6947 64.2278 62.8017 63.8547 63.0692Z" fill="#923C90"/>
<path d="M52.0783 69.8102C55.4354 67.8842 58.7924 65.9582 62.1494 64.0322C62.6823 63.7112 63.2152 63.3367 63.8546 63.2832C64.1743 63.4437 64.4408 63.6577 64.7605 63.8182C63.375 64.9417 61.7232 65.6907 60.2311 66.6002C57.4602 68.2052 54.6893 69.7567 51.9185 71.3082C51.5987 70.8802 51.1724 70.8267 50.6929 70.7732C50.8527 70.1847 51.3856 70.0242 51.8119 69.7567C51.9185 69.7567 52.025 69.7567 52.0783 69.8102Z" fill="#53ABCE"/>
<path d="M26.1278 69.6497C23.3569 68.0447 20.586 66.4932 17.8151 64.8882C16.3231 64.0322 14.7778 63.1762 13.2325 62.3202C13.2325 62.2667 13.1792 62.2132 13.1792 62.1062L13.2858 62.0527C14.0318 61.0897 15.2041 60.7152 16.1632 60.1267C18.6677 58.5752 21.2787 57.0772 23.8365 55.6862C24.5292 55.3117 25.4884 55.6327 26.0212 54.8302C26.0745 54.7767 26.2876 55.0442 26.3409 55.2047C26.6074 56.9702 26.4475 58.7892 26.4475 60.6082C26.5008 63.0692 26.4475 65.5302 26.4475 67.9912C26.5008 68.5797 26.6074 69.1682 26.1278 69.6497Z" fill="#E7942F"/>
<path d="M14.2453 46.3768C14.192 46.9118 13.7124 47.0188 13.2861 47.0723C13.2861 46.6978 13.2861 46.2698 13.2861 45.8953V45.8418C13.819 45.6813 14.0854 45.8953 14.2453 46.3768Z" fill="#EFD60C"/>
<path d="M26.1279 69.6492C26.1279 64.7272 26.1279 59.7517 26.1279 54.8297C26.1812 54.7762 26.2345 54.7762 26.2878 54.7227C27.1404 54.7762 27.7798 55.3112 28.4725 55.7392C31.723 57.6652 35.0268 59.5377 38.2772 61.5172C38.4904 61.6777 38.7568 61.7847 39.0232 61.8917C39.1298 61.9452 39.2364 61.9987 39.2897 62.1057C39.3962 62.3732 39.2364 62.5337 39.0765 62.6942C38.7568 62.9082 38.3838 63.0687 38.0641 63.2827C34.334 65.2622 30.7106 67.5092 27.0338 69.5957C26.8207 69.7027 26.6608 69.8632 26.3944 69.8632C26.2878 69.8097 26.2345 69.7027 26.1279 69.6492Z" fill="#376966"/>
<path d="M26.3945 69.8629C27.3537 68.7394 28.7924 68.3114 29.9647 67.5624C32.2027 66.1714 34.4941 64.8874 36.7854 63.6034C37.1584 63.3894 37.638 63.2289 38.0642 63.0684C39.13 63.6034 39.1833 64.0314 38.1708 64.6199C35.6131 66.1179 33.0553 67.6694 30.4443 69.1139C29.4851 69.6489 28.6858 70.3979 27.5668 70.6119H27.4603H27.3537C27.034 70.2909 26.7142 70.0769 26.3945 69.8629Z" fill="#2C6C76"/>
<path d="M25.7017 23.5859C25.8082 23.4254 25.9681 23.3719 26.1812 23.3184C30.1244 25.5654 34.0676 27.8659 38.0108 30.1664C38.3305 30.3804 38.6503 30.5944 39.0765 30.6479C39.0765 30.7014 39.0765 30.8084 39.0765 30.8619C39.0765 30.9154 39.0233 30.9689 39.0233 31.0224C37.7444 32.0924 36.1991 32.7879 34.7603 33.6439C32.3092 35.0884 29.858 36.5329 27.4068 37.9239C27.0338 38.1379 26.7141 38.4589 26.2345 38.1914C26.2345 33.6974 26.2345 29.2569 26.2345 24.7629C26.128 24.2814 26.3944 23.7464 25.7017 23.5859Z" fill="#F0B11B"/>
<path d="M39.2364 30.8621C43.1263 33.1626 47.0162 35.4096 50.8528 37.7101C51.0659 37.8171 51.2258 37.9776 51.4389 38.0846C52.0784 38.7801 51.3324 38.9941 50.9594 39.2081C49.3608 40.2246 47.6556 41.1341 46.0037 42.0971C44.192 43.1671 42.3803 44.1836 40.5152 45.2536C39.8225 45.6281 39.7692 46.0561 40.1955 46.5911C40.0357 47.1796 39.6094 47.2866 39.0765 47.3936C38.9166 47.3936 38.8634 47.2866 38.7568 47.1796C38.5436 46.5911 38.4903 46.0026 38.5436 45.3606C38.5436 41.1341 38.5436 36.9611 38.5436 32.7346C38.5436 32.0926 38.4903 31.3971 38.9166 30.8086C39.0765 30.8621 39.1831 30.8621 39.2364 30.8621Z" fill="#E9A222"/>
<path d="M38.8102 45.681C39.1299 46.216 39.0234 46.751 39.0234 47.3395C39.1299 47.4465 39.1299 47.5535 39.0234 47.6605C36.359 49.426 33.5349 50.8705 30.8172 52.4755C30.0712 52.957 29.2719 53.385 28.4726 53.813C28.0996 54.027 27.7266 54.2945 27.3003 53.92C25.2755 53.0105 23.4104 51.7265 21.4388 50.603C19.1475 49.2655 16.9095 47.928 14.6715 46.5905C14.5649 46.0555 14.9912 45.8415 15.3109 45.6275C18.5614 43.755 21.7586 41.8825 25.009 40.01C25.2755 39.8495 25.5419 39.689 25.8616 39.796C26.6609 39.7425 26.0748 38.8865 26.5543 38.619C27.0339 38.298 27.3536 38.6725 27.7266 38.8865C31.1903 40.8125 34.5473 42.9525 37.9576 44.8785C38.3306 45.039 38.7036 45.1995 38.8102 45.681Z" fill="#F2921E"/>
<path d="M38.81 45.6808C34.7603 43.3803 30.8171 40.8123 26.6607 38.6188C26.5009 38.4583 26.341 38.2978 26.1812 38.1373C29.0586 36.7463 31.6696 34.9808 34.4938 33.4293C36.0391 32.5733 37.5312 31.7173 39.0765 30.8613C39.0765 35.4088 39.0765 40.0098 39.0765 44.5573C39.0232 44.9318 39.1297 45.3598 38.81 45.6808Z" fill="#F5AE1A"/>
<path d="M25.9151 39.7967C22.558 41.7762 19.201 43.7022 15.8439 45.6817C15.4177 45.9492 14.9381 46.1097 14.6716 46.6447C14.5118 46.5912 14.3519 46.4842 14.1921 46.4307C13.8723 46.2702 13.6592 45.9492 13.2329 45.9492C13.2329 45.7887 13.2329 45.6282 13.2329 45.5212C14.4585 45.5212 15.2045 44.6117 16.1637 44.0767C18.7747 42.6322 21.3324 41.1342 23.9435 39.6362C24.6895 39.1547 25.3289 39.1547 25.9151 39.7967Z" fill="#F1971D"/>
<path d="M26.1282 54.8296C25.9151 55.4716 25.8085 55.8996 24.7961 55.6321C24.2099 55.4716 23.3573 56.2741 22.6646 56.6486C19.5207 58.4676 16.3768 60.2331 13.2329 62.0521C13.2329 57.1301 13.2329 52.2081 13.2329 47.2861C16.3235 48.8376 19.201 50.7636 22.2383 52.4221C23.5705 53.1711 24.7428 54.1341 26.1815 54.6156C26.2348 54.6691 26.2348 54.7761 26.1815 54.8296H26.1282Z" fill="#EF9220"/>
<path d="M27.3003 53.8665C28.8456 53.492 30.0179 52.4755 31.4033 51.7265C33.9611 50.389 36.359 48.7305 39.0233 47.5C39.2897 47.7675 39.3963 48.0885 39.3963 48.463C39.3963 52.422 39.5562 56.3275 39.343 60.2865C39.0233 61.1425 38.4904 60.768 38.0109 60.5005C36.0925 59.4305 34.2275 58.307 32.3625 57.237C31.0836 56.488 29.8048 55.7925 28.5259 54.99C28.0996 54.7225 27.62 54.562 27.3536 54.0805C27.3003 54.027 27.3003 53.92 27.3003 53.8665Z" fill="#DF8E29"/>
<path d="M27.3001 54.0811C30.4973 55.9001 33.6945 57.7726 36.8917 59.5916C37.5844 59.9661 38.2238 60.5011 39.0231 60.7151C39.183 60.5546 39.3428 60.5546 39.5027 60.6616C39.556 61.1966 39.3428 61.6781 39.0231 62.1061C36.8384 61.1431 34.8668 59.6986 32.7886 58.5751C30.6039 57.3446 28.4191 56.1141 26.2344 54.8836C26.2344 54.8301 26.2344 54.7231 26.2344 54.6696C26.6074 54.4556 26.9271 54.2416 27.3001 54.0811Z" fill="#46857F"/>
<path d="M64.9738 45.8417C60.6576 48.3562 56.3947 50.8708 52.0785 53.3318C51.7588 53.0107 51.7588 52.5292 51.7588 52.1012C51.7588 47.9282 51.7588 43.7552 51.7588 39.5822C51.7588 39.1542 51.7588 38.7262 52.0785 38.3517L52.1851 38.2983C56.1283 35.9977 60.0715 33.6437 64.0147 31.2897C64.6008 30.9152 64.8139 31.1292 64.8139 31.7712C64.8672 32.8412 64.5475 33.9647 65.0271 34.9812C64.9738 38.6727 64.9738 42.2572 64.9738 45.8417Z" fill="#532261"/>
<path d="M39.0233 62.5876C39.1298 62.4271 39.1831 62.2666 39.2897 62.1061C39.5028 61.6781 39.8758 61.5176 40.2488 61.3036C43.819 59.2171 47.3892 57.1841 50.9061 55.1511C51.2258 54.9906 51.4923 54.8301 51.8653 54.8301C51.9186 54.8301 51.9718 54.8301 52.0784 54.8301C52.0784 54.8836 52.1317 54.9371 52.1317 55.0441C52.1317 55.5256 52.1317 56.0071 52.1317 56.4351C52.1317 60.8756 52.1317 65.3161 52.1317 69.7566C52.0784 69.8101 52.0251 69.8101 51.9186 69.8101C51.439 69.9171 51.1193 69.6496 50.7463 69.4356C47.7622 67.6701 44.6716 65.9581 41.6876 64.1391C40.9948 63.7111 40.4087 63.2296 39.5561 63.7111C39.2897 63.8716 39.0233 63.6576 38.9167 63.3901C38.7568 63.1226 38.8101 62.8551 39.0233 62.5876Z" fill="#24495C"/>
<path d="M52.0252 38.4052C52.0252 43.3807 52.0785 48.3562 52.0785 53.3852C52.0252 53.3852 51.9187 53.3852 51.8654 53.3852C50.9062 53.3317 50.2135 52.6897 49.4675 52.2617C46.6966 50.6567 43.8724 49.0517 41.1015 47.4467C40.7285 47.2327 40.3022 47.0722 40.1424 46.6442C39.0766 45.8952 39.0766 45.8417 40.1957 45.1997C43.6593 43.1667 47.1229 41.1872 50.5332 39.1542C50.9062 38.9402 51.5989 38.8867 51.3858 38.1377C51.6522 38.1912 51.8654 38.2982 52.0252 38.4052Z" fill="#EA9428"/>
<path d="M39.503 60.7148C39.3432 60.7148 39.1833 60.7148 39.0234 60.7148C39.0234 56.3278 39.0234 51.9408 39.0234 47.5538C39.0234 47.5003 39.0234 47.3933 39.0234 47.3398C39.0767 47.3398 39.1833 47.3398 39.2366 47.3398C40.249 47.4468 40.995 48.1423 41.8476 48.6238C44.9382 50.3893 47.9756 52.2618 51.1727 53.9203C51.1194 54.0273 51.0129 54.0808 50.9596 54.1878C50.1603 55.0973 48.988 55.5253 47.9756 56.1673C45.5777 57.5583 43.1265 59.0028 40.7286 60.3938C40.3023 60.5008 39.9826 60.8753 39.503 60.7148Z" fill="#E59C2B"/>
<path d="M39.503 60.7143C43.2864 58.4673 47.0697 56.2203 50.9596 54.1338C51.2793 54.3478 51.599 54.6153 51.9188 54.8293C47.7624 57.3438 43.5528 59.7513 39.2899 62.1053C39.1833 62.1053 39.13 62.1053 39.0235 62.1053C39.0235 61.5703 38.9702 61.0353 39.503 60.7143Z" fill="#3A7B88"/>
<path d="M51.1724 53.8668C50.0534 53.9738 49.3074 53.1713 48.4548 52.6898C45.3642 50.9243 42.3269 49.1053 39.2896 47.2863C39.6093 47.0723 39.929 46.8048 40.2487 46.5908C44.1919 48.7308 48.0818 51.0313 51.9184 53.3853C51.7586 53.7063 51.4921 53.8668 51.1724 53.8668Z" fill="#F0992B"/>
<path d="M39.0235 63.4967C41.0483 62.6407 42.2739 64.2992 43.7127 65.1017C46.4836 66.5997 49.1479 68.2582 51.8655 69.8632C51.4392 70.1842 51.0662 70.4517 50.6399 70.7727C47.6026 72.4847 44.5652 74.2502 41.5279 75.9087C40.7286 76.3367 39.9826 77.0857 38.9702 77.1927C38.5972 76.7112 38.5972 76.1762 38.5972 75.6412C38.5972 72.2172 38.5972 68.7932 38.5972 65.3692C38.6505 64.6737 38.757 64.0852 39.0235 63.4967Z" fill="#205463"/>
<path d="M39.0235 63.4972C39.0235 68.0447 39.0235 72.5922 39.0235 77.1397C36.3591 75.8557 33.908 74.1972 31.3502 72.7527C30.0714 72.0037 28.8458 71.2547 27.5669 70.5057C29.6451 69.0077 31.9897 67.8842 34.1744 66.5467C35.5066 65.7442 36.892 64.9952 38.2775 64.1927C39.2899 63.6042 38.0643 63.3902 38.0643 63.0157C38.2775 62.6947 38.5972 62.5877 38.9702 62.5342C39.0235 62.9087 39.0235 63.2297 39.0235 63.4972Z" fill="#276B77"/>
</svg>
