<svg width="308" height="126" viewBox="0 0 308 126" fill="none" xmlns="http://www.w3.org/2000/svg">
<path d="M103.091 84.2537L106.657 75.9723C110.512 78.8501 115.627 80.3437 120.686 80.3437C124.424 80.3437 126.778 78.9048 126.778 76.723C126.723 70.6312 104.413 75.4014 104.241 60.1055C104.186 52.3403 111.083 46.3658 120.858 46.3658C126.669 46.3658 132.471 47.8047 136.616 51.0812L133.284 59.5347C129.492 57.1183 124.776 55.3979 120.287 55.3979C117.238 55.3979 115.228 56.8368 115.228 58.6745C115.283 64.6568 137.765 61.3802 138 75.9801C138 83.9174 131.275 89.4931 121.609 89.4931C114.54 89.4931 108.041 87.8196 103.091 84.2537ZM239.887 72.9851C238.104 76.0896 234.772 78.2167 230.917 78.2167C225.224 78.2167 220.626 73.6185 220.626 67.9255C220.626 62.2326 225.224 57.6344 230.917 57.6344C234.772 57.6344 238.104 59.7614 239.887 62.866L249.716 57.3998C246.033 50.8466 238.964 46.358 230.917 46.358C219.015 46.358 209.357 56.0157 209.357 67.9177C209.357 79.8197 219.015 89.4774 230.917 89.4774C239.026 89.4774 246.041 85.0513 249.716 78.4356C249.716 78.4512 239.887 72.9851 239.887 72.9851ZM142.942 28.4814H155.251V88.6876H142.942V28.4814ZM254.549 28.4814V88.6876H266.858V70.6312L281.465 88.6876H297.223L278.65 67.2374L295.846 47.226H280.785L266.873 63.8435V28.4814H254.549ZM191.817 73.1024C190.034 76.0349 186.351 78.2167 182.214 78.2167C176.521 78.2167 171.923 73.6185 171.923 67.9255C171.923 62.2326 176.521 57.6344 182.214 57.6344C186.351 57.6344 190.034 59.9335 191.817 62.9207V73.1024ZM191.817 47.226V52.1135C189.807 48.7196 184.802 46.3658 179.571 46.3658C168.764 46.3658 160.248 55.914 160.248 67.8708C160.248 79.8276 168.756 89.4931 179.571 89.4931C184.802 89.4931 189.807 87.1393 191.817 83.7454V88.6329H204.126V47.2338H191.817V47.226Z" fill="#D0CCC8"/>
<path d="M27.0263 73.0473C27.0263 77.2467 23.6324 80.6406 19.4331 80.6406C15.2337 80.6406 11.8398 77.2467 11.8398 73.0473C11.8398 68.848 15.2337 65.4541 19.4331 65.4541H27.0263V73.0473ZM30.819 73.0473C30.819 68.848 34.2129 65.4541 38.4122 65.4541C42.6115 65.4541 46.0054 68.848 46.0054 73.0473V92.0186C46.0054 96.218 42.6115 99.6119 38.4122 99.6119C34.2129 99.6119 30.819 96.218 30.819 92.0186V73.0473Z" fill="#D0CCC8"/>
<path d="M38.4044 42.5732C34.2051 42.5732 30.8112 39.1793 30.8112 34.9799C30.8112 30.7806 34.2051 27.3867 38.4044 27.3867C42.6038 27.3867 45.9977 30.7806 45.9977 34.9799V42.5732H38.4044ZM38.4044 46.4206C42.6038 46.4206 45.9977 49.8145 45.9977 54.0138C45.9977 58.2131 42.6038 61.607 38.4044 61.607H19.3784C15.179 61.607 11.7852 58.2131 11.7852 54.0138C11.7852 49.8145 15.179 46.4206 19.3784 46.4206H38.4044Z" fill="#D0CCC8"/>
<path d="M68.8244 54.0138C68.8244 49.8145 72.2182 46.4206 76.4176 46.4206C80.6169 46.4206 84.0108 49.8145 84.0108 54.0138C84.0108 58.2131 80.6169 61.607 76.4176 61.607H68.8244V54.0138ZM65.0317 54.0138C65.0317 58.2131 61.6378 61.607 57.4384 61.607C53.2391 61.607 49.8452 58.2131 49.8452 54.0138V34.9799C49.8452 30.7806 53.2391 27.3867 57.4384 27.3867C61.6378 27.3867 65.0317 30.7806 65.0317 34.9799V54.0138Z" fill="#D0CCC8"/>
<path d="M57.4384 84.4254C61.6378 84.4254 65.0317 87.8193 65.0317 92.0186C65.0317 96.218 61.6378 99.6119 57.4384 99.6119C53.2391 99.6119 49.8452 96.218 49.8452 92.0186V84.4254H57.4384ZM57.4384 80.6327C53.2391 80.6327 49.8452 77.2389 49.8452 73.0395C49.8452 68.8402 53.2391 65.4463 57.4384 65.4463H76.4723C80.6717 65.4463 84.0655 68.8402 84.0655 73.0395C84.0655 77.2389 80.6717 80.6327 76.4723 80.6327H57.4384Z" fill="#D0CCC8"/>
</svg>
