<svg width="262" height="64" viewBox="0 0 262 64" fill="none" xmlns="http://www.w3.org/2000/svg">
<path d="M11.4494 57.9508C8.64821 57.9508 4.99673 57.3603 2.84586 56.5729C2.09556 56.2777 1.79543 55.884 2.14557 54.7522L2.84586 52.2918C3.09596 51.5044 3.34606 50.6186 4.54655 51.1107C6.79746 51.7996 9.14842 52.2918 11.4494 52.2918C15.0008 52.2918 15.551 51.3076 15.551 49.6344C15.551 47.9613 15.551 47.1248 10.8991 46.0914C3.39608 44.9104 2.1956 43.2373 2.1956 37.529C2.1956 32.9526 4.59657 30.0984 12.6498 30.0984C15.0508 30.0984 17.952 30.0984 20.8532 30.5905C21.4034 30.5905 22.0537 31.1318 22.0537 32.2636L21.4034 35.1177C21.2533 35.8559 20.7031 36.4956 19.5026 36.2496C17.1016 35.7575 15.0008 35.7575 12.5998 35.7575C9.69864 35.7575 9.14841 35.8067 9.14841 38.0211C9.14841 39.6942 10.3489 40.3339 13.8003 40.8752C21.3534 42.5483 22.5038 45.1072 22.5038 49.6837C22.5038 55.4411 20.8031 57.9508 11.4494 57.9508ZM59.2187 40.826L58.7685 57.4095H51.8157L52.9162 31.7715C52.9162 30.5905 53.5664 30.5905 54.0666 30.5905H59.3188C60.0191 30.5905 60.0191 30.6889 60.5193 31.7715L67.5221 47.8629H67.5721L74.575 31.7715C75.0752 30.6397 75.0752 30.5905 76.2757 30.5905H80.9776C81.4778 30.5905 82.078 30.5905 82.078 31.7715L83.2285 57.4095H76.3257L75.8255 42.7452H75.7754L71.0235 53.2759C70.8234 53.768 70.5233 54.3093 69.8731 54.3093H65.2212C64.6709 54.3093 64.4709 53.9649 64.1207 53.2759L59.2187 40.826ZM99.6852 49.4868H94.383V57.4587H87.5302V31.8207C87.5302 30.6397 88.0304 30.6397 88.7307 30.6397H99.6852C107.238 30.6397 109.589 33.1002 109.589 38.71V41.0721C109.589 46.7311 106.688 49.4868 99.6852 49.4868ZM103.237 39.2021C103.237 37.1845 102.036 36.348 99.6351 36.348H94.333V43.7786H99.6351C102.536 43.7786 103.237 43.1388 103.237 40.9244V39.2021ZM129.747 55.7364V47.1248H120.143V55.7364C120.143 56.9174 119.493 57.4095 118.443 57.4095H115.041C113.841 57.4095 113.341 56.9174 113.341 55.7364V31.7715C113.341 30.5905 113.841 30.5905 115.041 30.5905H118.443C119.543 30.5905 120.143 30.5905 120.143 31.7715V41.4165H129.747V31.7715C129.747 30.5905 129.747 30.5905 130.948 30.5905H135.45C135.95 30.5905 136.6 30.5905 136.6 31.7715V55.7364C136.6 56.9174 135.95 57.4095 135.45 57.4095H130.948C129.747 57.4095 129.747 56.9174 129.747 55.7364ZM165.612 49.536C165.612 54.6046 162.06 58 153.307 58C144.703 58 141.802 54.6046 141.802 49.536V38.6116C141.802 33.3954 144.703 30 153.307 30C162.01 30 165.612 33.3954 165.612 38.6116V49.536ZM158.759 39.1037C158.759 36.8893 157.208 35.7083 153.657 35.7083C150.206 35.7083 148.655 36.8893 148.655 39.1037V48.7487C148.655 51.6028 150.206 52.2918 153.657 52.2918C157.208 52.2918 158.759 51.6028 158.759 48.7487V39.1037ZM177.717 40.0879V57.4095H170.864V31.7715C170.864 30.5905 171.364 30.5905 172.565 30.5905H178.417C178.917 30.5905 179.317 30.6889 179.568 31.1318L188.971 49.536H189.021V30.5413H195.874V55.6872C195.874 56.8682 195.224 57.3603 194.173 57.3603H187.671C187.171 57.3603 186.32 56.9666 185.97 56.2777L177.717 40.0879ZM34.1586 47.1248L25.455 32.2636C24.8048 31.1318 25.455 30.5905 26.6555 30.5905H30.6071C32.0577 30.5905 32.2078 30.6889 32.4579 31.1318L37.61 40.8752H37.71L42.9621 31.1318C43.2622 30.6397 43.4623 30.5905 44.0126 30.5905H48.1142C49.3147 30.5905 49.8149 31.1318 49.3147 32.2636L41.1114 47.1248V57.4587H34.2086V47.1248H34.1586ZM207.629 47.1248L198.925 32.2636C198.375 31.1318 198.925 30.5905 200.076 30.5905H204.178C204.678 30.5905 205.378 30.5905 205.878 31.1318L210.93 40.8752H210.98L215.832 31.1318C216.182 30.4429 217.033 30.5905 217.533 30.5905H221.635C222.785 30.5905 223.335 31.1318 222.785 32.2636L214.432 47.1248V57.4587H207.629V47.1248Z" fill="black"/>
</svg>
