<svg width="169" height="126" viewBox="0 0 169 126" fill="none" xmlns="http://www.w3.org/2000/svg">
<path d="M0 32.1221V67.0487C0 80.2167 9.15417 88.8779 21.125 88.8779C26.9696 88.8779 32.11 86.6246 35.8421 82.7517V87.9625H44.1512V32.1221H35.7717V66.5558C35.7717 75.4283 29.7863 81.4137 22.1108 81.4137C14.2946 81.4137 8.37958 75.5692 8.37958 66.5558V32.1221H0ZM52.39 32.1221V87.9625H60.3471V82.8221C62.2403 84.746 64.4985 86.2727 66.9894 87.3126C69.4803 88.3525 72.1537 88.8846 74.8529 88.8779C77.6627 88.9062 80.4499 88.3736 83.0512 87.3113C85.6526 86.2491 88.016 84.6785 90.0029 82.6916C91.9898 80.7047 93.5603 78.3414 94.6226 75.74C95.6848 73.1386 96.2174 70.3514 96.1892 67.5417C96.1893 64.7496 95.636 61.9852 94.5612 59.4084C93.4863 56.8315 91.9114 54.4933 89.9273 52.5288C87.9432 50.5644 85.5894 49.0128 83.002 47.9637C80.4146 46.9145 77.6448 46.3887 74.8529 46.4167C72.1644 46.4114 69.502 46.9445 67.0227 47.9846C64.5435 49.0247 62.2976 50.5506 60.4175 52.4725V32.1221H52.39ZM121.891 46.4167C109.991 46.4167 100.978 56.1342 100.978 67.5417C100.978 79.7237 110.413 88.6667 122.595 88.6667C130.06 88.6667 136.115 85.5683 140.129 80.1462L134.355 75.7804C131.327 79.8646 127.313 81.625 122.595 81.625C115.765 81.625 110.272 76.8367 109.146 70.2175H142.242V67.5417C142.242 55.5004 133.58 46.4167 121.891 46.4167ZM166.183 46.98C161.747 46.98 158.437 49.0221 156.466 52.2612V47.2617H148.509V87.9625H156.536V64.7954C156.536 58.5283 160.409 54.4442 165.69 54.4442H169V46.9096H166.183M121.75 53.4583C127.736 53.4583 132.735 57.6129 134.073 63.8096H109.146C110.765 57.6129 115.765 53.4583 121.75 53.4583ZM74.2896 53.4583C81.965 53.4583 88.2321 59.7958 88.2321 67.5417C88.2321 75.4987 81.965 81.625 74.2896 81.625C70.5667 81.6064 67.0026 80.1144 64.3766 77.4753C61.7507 74.8361 60.2766 71.2646 60.2767 67.5417C60.2766 63.8187 61.7507 60.2472 64.3766 57.6081C67.0026 54.9689 70.5667 53.4769 74.2896 53.4583Z" fill="#D0CCC8"/>
</svg>
